<?xml version="1.0" encoding="UTF-8"?>
<svg version="1.1" xmlns="http://www.w3.org/2000/svg" width="512" height="512">
<path d="M0 0 C0.99868909 -0.00297112 1.99737819 -0.00594224 3.02633059 -0.0090034 C6.35908455 -0.01764635 9.69180239 -0.01919493 13.02456665 -0.02069092 C15.42015662 -0.02532233 17.81574585 -0.03034742 20.21133423 -0.03573608 C26.71186048 -0.04883371 33.21237985 -0.05533771 39.71291685 -0.05974674 C43.78023756 -0.06251761 47.84755591 -0.06675656 51.91487503 -0.07125092 C63.19913521 -0.08343966 74.48339352 -0.09373856 85.76766014 -0.09712601 C86.48888342 -0.09734557 87.2101067 -0.09756514 87.95318524 -0.09779136 C88.67603937 -0.09800964 89.39889351 -0.09822791 90.14365232 -0.09845281 C91.60818887 -0.09889626 93.07272542 -0.09934282 94.53726196 -0.09979248 C95.2637076 -0.10001391 95.99015323 -0.10023534 96.73861237 -0.10046348 C108.48858398 -0.10440477 120.23849332 -0.12184006 131.98844092 -0.145152 C144.08217627 -0.16895013 156.17588049 -0.18133175 168.26963961 -0.18249393 C175.04751456 -0.18340615 181.82530843 -0.18904286 188.60316086 -0.20731354 C194.98736375 -0.22388814 201.37141365 -0.2259044 207.75563049 -0.21717453 C210.08628883 -0.21640908 212.41695571 -0.22068117 214.74759293 -0.23063278 C258.07962913 -0.40465983 296.27158717 14.14096113 327.37026978 44.66778564 C335.82133285 53.25263113 342.72223089 62.77794547 348.81997681 73.14044189 C349.16657349 73.72519287 349.51317017 74.30994385 349.87026978 74.91241455 C362.01010239 95.68527045 368.98307225 119.22610484 368.9604187 143.32046509 C368.96487538 144.81849873 368.96487538 144.81849873 368.9694221 146.34679568 C368.97806505 149.67954963 368.97961363 153.01226748 368.98110962 156.34503174 C368.98574103 158.7406217 368.99076612 161.13621093 368.99615479 163.53179932 C369.00925242 170.03232557 369.01575642 176.53284494 369.02016544 183.03338194 C369.02293631 187.10070264 369.02717527 191.168021 369.03166962 195.23534012 C369.04385836 206.5196003 369.05415726 217.80385861 369.05754471 229.08812523 C369.05776427 229.80934851 369.05798384 230.53057179 369.05821006 231.27365033 C369.05842834 231.99650446 369.05864662 232.7193586 369.05887151 233.46411741 C369.05931496 234.92865396 369.05976152 236.3931905 369.06021118 237.85772705 C369.06043261 238.58417268 369.06065404 239.31061832 369.06088218 240.05907746 C369.06482347 251.80904907 369.08225876 263.55895841 369.1055707 275.308906 C369.12936883 287.40264135 369.14175045 299.49634558 369.14291263 311.5901047 C369.14382485 318.36797965 369.14946156 325.14577352 369.16773224 331.92362595 C369.18430684 338.30782883 369.1863231 344.69187874 369.17759323 351.07609558 C369.17682778 353.40675392 369.18109987 355.7374208 369.19105148 358.06805801 C369.36507853 401.40009422 354.81945758 439.59205226 324.29263306 470.69073486 C315.70778757 479.14179794 306.18247323 486.04269597 295.81997681 492.14044189 C295.23522583 492.48703857 294.65047485 492.83363525 294.04800415 493.19073486 C273.27514825 505.33056748 249.73431386 512.30353734 225.63995361 512.28088379 C224.64126452 512.28385491 223.64257542 512.28682603 222.61362302 512.28988719 C219.28086907 512.29853014 215.94815122 512.30007872 212.61538696 512.30157471 C210.219797 512.30620611 207.82420777 512.31123121 205.42861938 512.31661987 C198.92809313 512.3297175 192.42757376 512.3362215 185.92703676 512.34063053 C181.85971606 512.3434014 177.7923977 512.34764035 173.72507858 512.3521347 C162.4408184 512.36432345 151.15656009 512.37462235 139.87229347 512.3780098 C138.79045855 512.37833915 138.79045855 512.37833915 137.68676838 512.37867515 C136.96391424 512.37889343 136.2410601 512.3791117 135.49630129 512.3793366 C134.03176474 512.37978005 132.5672282 512.38022661 131.10269165 512.38067627 C130.37624602 512.3808977 129.64980038 512.38111913 128.90134124 512.38134727 C117.15136963 512.38528855 105.40146029 512.40272385 93.6515127 512.42603579 C81.55777735 512.44983392 69.46407312 512.46221554 57.370314 512.46337771 C50.59243905 512.46428994 43.81464518 512.46992664 37.03679276 512.48819733 C30.65258987 512.50477193 24.26853996 512.50678819 17.88432312 512.49805832 C15.55366478 512.49729287 13.2229979 512.50156496 10.89236069 512.51151657 C-32.43967552 512.68554362 -70.63163355 498.13992266 -101.73031616 467.61309814 C-110.18137924 459.02825266 -117.08227727 449.50293832 -123.18002319 439.14044189 C-123.52661987 438.55569092 -123.87321655 437.97093994 -124.23031616 437.36846924 C-139.15366328 411.83265263 -143.96888288 384.22270078 -143.82699585 354.93341064 C-143.83379502 352.5269607 -143.84271086 350.12051597 -143.85354614 347.71408081 C-143.87607264 341.2594098 -143.86761464 334.80514453 -143.85165071 328.35046768 C-143.84267249 324.30057544 -143.84447118 320.25073325 -143.84910202 316.20083618 C-143.84986819 315.52315191 -143.85063435 314.84546765 -143.85142373 314.14724749 C-143.85302277 312.7694531 -143.85464384 311.39165874 -143.85628669 310.0138644 C-143.87045789 297.17115175 -143.8542884 284.32861914 -143.82728486 271.48593605 C-143.80495393 260.5272569 -143.80883651 249.56884283 -143.83187866 238.61016846 C-143.85879081 225.80542442 -143.86908541 213.00083715 -143.85381734 200.19606876 C-143.85222502 198.82406174 -143.85065316 197.45205468 -143.84910202 196.08004761 C-143.84833064 195.40544076 -143.84755927 194.73083391 -143.84676451 194.03578442 C-143.84249339 189.33985864 -143.8498857 184.64406472 -143.86149979 179.94815063 C-143.87611257 173.59803788 -143.86562045 167.2484178 -143.8370285 160.89835739 C-143.83050645 158.58998806 -143.83215941 156.2815761 -143.84334183 153.97322464 C-144.02984188 111.50758545 -129.37532516 73.193066 -99.75082397 42.66778564 C-73.70742027 16.77431011 -36.88675524 -0.03468097 0 0 Z " fill="#F28C00" transform="translate(143.18002319335938,-0.14044189453125)"/>
<path d="M0 0 C-3.84552067 4.59619463 -7.82607394 8.96962672 -12.07443237 13.19468689 C-12.94579352 14.06732967 -12.94579352 14.06732967 -13.83475792 14.95760161 C-15.76231394 16.88679154 -17.69339766 18.81240929 -19.62451172 20.73803711 C-21.01475655 22.12799959 -22.40478066 23.51818285 -23.79460144 24.90856934 C-27.55428743 28.66854143 -31.31704175 32.42542914 -35.08036566 36.1817596 C-39.01794667 40.11307606 -42.95268323 44.04723738 -46.88772583 47.98109436 C-54.33349954 55.4237639 -61.78181802 62.86388131 -69.23106015 70.30307919 C-77.71427386 78.77510339 -86.19463761 87.24997791 -94.6747663 95.72508991 C-112.11334749 113.1532274 -129.55549443 130.5777926 -147 148 C-145.37322238 152.10415123 -142.42077413 154.85527782 -139.34411621 157.90312195 C-138.75987051 158.48978207 -138.1756248 159.07644219 -137.57367468 159.68087989 C-135.61309185 161.6471023 -133.64543657 163.60608979 -131.67773438 165.56518555 C-130.27141274 166.97257998 -128.86552414 168.38040723 -127.46003723 169.78863525 C-123.64033669 173.61318694 -119.814409 177.43145318 -115.98721504 181.2485044 C-111.98766757 185.23927782 -107.99338348 189.23531277 -103.99841309 193.23066711 C-97.28994462 199.93819878 -90.57761236 206.64184405 -83.86279297 213.34301758 C-76.09095681 221.09911847 -68.3243694 228.86044337 -60.56076384 236.62478226 C-53.10091236 244.0852433 -45.63821103 251.5428464 -38.17390442 258.99884987 C-34.9929317 262.17628513 -31.81281592 265.35457446 -28.63334656 268.53351402 C-24.89293151 272.27292723 -21.14998606 276.00978911 -17.40503502 279.74465942 C-16.02788069 281.11888407 -14.65158012 282.4939649 -13.27617836 283.86994362 C-11.40504779 285.74156219 -9.53088965 287.61009392 -7.65588379 289.47782898 C-7.10666811 290.02859327 -6.55745242 290.57935755 -5.99159384 291.14681166 C-3.25505241 293.91697867 -3.25505241 293.91697867 0 296 C0 296.66 0 297.32 0 298 C-12.5676182 301.24335075 -25.13847259 303.27006031 -38.0625 304.4375 C-39.03140545 304.52566986 -40.0003109 304.61383972 -40.99857712 304.7046814 C-66.76052361 306.76591195 -87.2281097 301.45931837 -106.95401859 284.87225819 C-120.8236942 272.95192811 -133.56966074 259.83403526 -146.0625 246.5 C-146.64003603 245.88470727 -147.21757207 245.26941455 -147.8126092 244.63547659 C-162.97505062 228.46482889 -177.68830278 211.92787154 -192 195 C-202.89742355 200.26965123 -216.62091381 211.40185186 -220.76971436 223.18634033 C-223.58528037 234.56820097 -222.66790214 246.73815259 -222.11151123 258.34222412 C-221.89005152 263.62052907 -221.8541003 268.903271 -221.78538513 274.18534851 C-221.66199969 282.13546161 -221.3107349 290.04518658 -221 298 C-242.12 298 -263.24 298 -285 298 C-291.95313859 258.1115191 -298.77973687 212.66595909 -274.22555428 177.42281882 C-254.43767347 149.78617926 -229.11834415 126.14483614 -204.44328122 102.96272537 C-195.87588534 94.90567689 -187.59114402 86.62807904 -179.4543457 78.13720703 C-126.25657436 22.69464416 -82.23970829 -18.90652781 0 0 Z " fill="#FEFEFD" transform="translate(398,107)"/>
<path d="M0 0 C20.79 0 41.58 0 63 0 C64.73390412 10.62093955 66.16282861 20.93119868 66.875 31.625 C66.92792583 32.41521168 66.98085167 33.20542336 67.03538132 34.01958084 C68.27374956 55.01776491 65.36094797 71.14433864 51.25225067 87.28981781 C45.16282317 94.00551657 38.73480722 100.30431094 32.0625 106.4375 C31.32314964 107.11810738 30.58379929 107.79871475 29.82204437 108.49994659 C3.04639396 133 3.04639396 133 0 133 C0 89.11 0 45.22 0 0 Z " fill="#FEFDFC" transform="translate(114,107)"/>
</svg>
